<svg version="1.1" id="Layer_1" xmlns="http://www.w3.org/2000/svg" xmlns:xlink="http://www.w3.org/1999/xlink" x="0px" y="0px"
	 width="100%" viewBox="0 0 567 567" enable-background="new 0 0 567 567" xml:space="preserve">
<path fill="#101502" opacity="1.000000" stroke="none" 
	d="
M317.000000,568.000000 
	C211.356506,568.000000 106.213005,568.000000 1.034752,568.000000 
	C1.034752,379.064819 1.034752,190.129608 1.034752,1.097207 
	C189.893509,1.097207 378.787079,1.097207 567.840332,1.097207 
	C567.840332,189.999893 567.840332,378.999939 567.840332,568.000000 
	C484.462891,568.000000 400.981445,568.000000 317.000000,568.000000 
M213.676559,463.853271 
	C242.869186,475.150391 272.975830,479.217072 304.187988,476.149323 
	C328.015869,473.807404 350.575439,467.265839 371.777649,456.477203 
	C394.816895,444.753815 414.840851,429.003632 431.535858,409.069855 
	C444.453583,393.646149 455.114929,376.870026 462.690918,358.274017 
	C474.952545,328.176636 479.495667,296.924408 476.093445,264.494141 
	C473.421082,239.020737 466.113739,215.114594 453.872192,192.605743 
	C437.705566,162.879745 415.267944,139.203644 386.718536,121.105904 
	C359.889954,104.099007 330.522736,94.567940 299.067139,92.220695 
	C279.169830,90.735962 259.259064,92.133415 239.658310,96.976997 
	C205.436584,105.433617 175.621811,121.648102 150.316345,146.178574 
	C132.686783,163.268234 118.895821,182.988083 108.728409,205.379929 
	C99.337517,226.061615 93.514702,247.716110 92.289879,270.235229 
	C91.491547,284.913239 92.524635,299.832214 94.224510,314.470551 
	C96.602280,334.946533 103.415665,354.339111 112.917419,372.594421 
	C124.776054,395.377960 140.384323,415.296570 160.239731,431.800110 
	C176.217636,445.080688 193.611511,455.921631 213.676559,463.853271 
z"/>
<path fill="#fffb07cb" opacity="5.000000"  stroke="black" 
	d="
M213.327179,463.690399 
	C193.611511,455.921631 176.217636,445.080688 160.239731,431.800110 
	C140.384323,415.296570 124.776054,395.377960 112.917419,372.594421 
	C103.415665,354.339111 96.602280,334.946533 94.224510,314.470551 
	C92.524635,299.832214 91.491547,284.913239 92.289879,270.235229 
	C93.514702,247.716110 99.337517,226.061615 108.728409,205.379929 
	C118.895821,182.988083 132.686783,163.268234 150.316345,146.178574 
	C175.621811,121.648102 205.436584,105.433617 239.658310,96.976997 
	C259.259064,92.133415 279.169830,90.735962 299.067139,92.220695 
	C330.522736,94.567940 359.889954,104.099007 386.718536,121.105904 
	C415.267944,139.203644 437.705566,162.879745 453.872192,192.605743 
	C466.113739,215.114594 473.421082,239.020737 476.093445,264.494141 
	C479.495667,296.924408 474.952545,328.176636 462.690918,358.274017 
	C455.114929,376.870026 444.453583,393.646149 431.535858,409.069855 
	C414.840851,429.003632 394.816895,444.753815 371.777649,456.477203 
	C350.575439,467.265839 328.015869,473.807404 304.187988,476.149323 
	C272.975830,479.217072 242.869186,475.150391 213.327179,463.690399 
M136.081741,188.638977 
	C111.286163,228.224487 102.582611,271.004486 111.007362,317.026031 
	C118.249817,356.589111 137.039886,390.068390 167.211533,416.392639 
	C210.227600,453.923401 260.436096,467.922119 316.830200,457.970947 
	C356.452972,450.979187 389.874237,432.037445 416.273315,401.928558 
	C452.219360,360.931091 466.646759,312.947845 459.026703,258.710297 
	C453.865540,221.974213 438.529175,189.909424 412.717651,163.372177 
	C368.610199,118.024612 314.887390,100.221481 252.537170,111.094002 
	C202.920731,119.746025 164.645340,146.501694 136.081741,188.638977 
z"/>
<path fill="#03df03f5" opacity="1.000000" stroke="none" 
	d="
M136.306213,188.353653 
	C164.645340,146.501694 202.920731,119.746025 252.537170,111.094002 
	C314.887390,100.221481 368.610199,118.024612 412.717651,163.372177 
	C438.529175,189.909424 453.865540,221.974213 459.026703,258.710297 
	C466.646759,312.947845 452.219360,360.931091 416.273315,401.928558 
	C389.874237,432.037445 356.452972,450.979187 316.830200,457.970947 
	C260.436096,467.922119 210.227600,453.923401 167.211533,416.392639 
	C137.039886,390.068390 118.249817,356.589111 111.007362,317.026031 
	C102.582611,271.004486 111.286163,228.224487 136.306213,188.353653 
M326.804993,210.259872 
	C319.859375,222.341461 312.913757,234.423050 306.047394,246.366776 
	C320.370056,255.656860 327.870850,268.119995 328.228729,284.702423 
	C359.986328,284.702423 391.532745,284.702423 423.068726,284.702423 
	C424.746429,236.920776 396.196899,187.059280 353.207458,163.958359 
	C344.479675,179.150497 335.746399,194.352234 326.804993,210.259872 
M192.499817,284.255432 
	C208.589813,284.255432 224.679810,284.255432 240.710220,284.255432 
	C241.999496,266.787781 248.335495,256.134033 263.134491,246.217285 
	C247.627853,218.748230 232.109680,191.258789 216.603714,163.790939 
	C173.894135,185.130402 143.617126,237.902512 146.185898,284.256348 
	C161.268234,284.256348 176.384018,284.256348 192.499817,284.255432 
M233.626617,373.134613 
	C227.609650,383.727264 221.592667,394.319946 215.590561,404.886444 
	C254.366699,428.650085 311.064575,430.181244 352.896454,405.339691 
	C337.392700,377.856842 321.886108,350.368958 306.956085,323.903168 
	C298.908905,325.371674 291.687225,327.744568 284.476471,327.711853 
	C277.109741,327.678497 269.753754,325.284210 261.837524,323.820770 
	C252.870590,339.502594 243.436752,356.000916 233.626617,373.134613 
M261.664734,294.578827 
	C267.764923,308.185822 283.821594,313.599121 296.798737,306.423798 
	C309.382599,299.465881 313.382935,282.732147 305.360962,270.607178 
	C298.415649,260.109558 284.871460,256.501434 273.207336,262.041595 
	C261.892883,267.415680 256.915466,280.641907 261.664734,294.578827 
z"/>
<path fill="##fffb07cb" opacity="1.000000" stroke="none" 
	d="
M326.909058,209.906921 
	C335.746399,194.352234 344.479675,179.150497 353.207458,163.958359 
	C396.196899,187.059280 424.746429,236.920776 423.068726,284.702423 
	C391.532745,284.702423 359.986328,284.702423 328.228729,284.702423 
	C327.870850,268.119995 320.370056,255.656860 306.047394,246.366776 
	C312.913757,234.423050 319.859375,222.341461 326.909058,209.906921 
z"/>
<path fill="#010300" opacity="1.000000" stroke="none" 
	d="
M191.999817,284.255890 
	C176.384018,284.256348 161.268234,284.256348 146.185898,284.256348 
	C143.617126,237.902512 173.894135,185.130402 216.603714,163.790939 
	C232.109680,191.258789 247.627853,218.748230 263.134491,246.217285 
	C248.335495,256.134033 241.999496,266.787781 240.710220,284.255432 
	C224.679810,284.255432 208.589813,284.255432 191.999817,284.255890 
z"/>
<path fill="#010300" opacity="1.000000" stroke="none" 
	d="
M233.814758,372.816925 
	C243.436752,356.000916 252.870590,339.502594 261.837524,323.820770 
	C269.753754,325.284210 277.109741,327.678497 284.476471,327.711853 
	C291.687225,327.744568 298.908905,325.371674 306.956085,323.903168 
	C321.886108,350.368958 337.392700,377.856842 352.896454,405.339691 
	C311.064575,430.181244 254.366699,428.650085 215.590561,404.886444 
	C221.592667,394.319946 227.609650,383.727264 233.814758,372.816925 
z"/>
<path fill="#010300" opacity="1.000000" stroke="none" 
	d="
M261.437347,294.250244 
	C256.915466,280.641907 261.892883,267.415680 273.207336,262.041595 
	C284.871460,256.501434 298.415649,260.109558 305.360962,270.607178 
	C313.382935,282.732147 309.382599,299.465881 296.798737,306.423798 
	C283.821594,313.599121 267.764923,308.185822 261.437347,294.250244 
z"/>
</svg>